<svg width="35" height="29" viewBox="0 0 35 29" fill="none" xmlns="http://www.w3.org/2000/svg">
<path d="M11.3127 13.7112C9.35053 14.2956 8.03421 16.0155 8.16655 17.8556C8.78999 17.1441 9.74209 16.53 10.8954 16.1262L11.3127 13.7112ZM5.2397 16.4993L3.50448 6.45933C3.48862 6.36872 3.51979 6.31279 3.5176 6.31111C6.67633 4.518 10.2507 3.57 13.854 3.57C13.9421 3.57 14.0307 3.5795 14.1192 3.58062C14.8821 2.82725 15.8545 2.30375 16.9405 2.12645C17.9736 1.95754 19.0214 1.87197 20.0676 1.8289C19.5212 1.04868 18.7288 0.473725 17.7833 0.3188C16.4757 0.105707 15.1616 0 13.8535 0C9.66115 0 5.52462 1.08616 1.81574 3.19135C0.493956 3.94193 -0.214242 5.50796 0.0575526 7.07959L1.79277 17.1195C2.57097 21.623 9.24826 25.066 12.9735 25.066C13.1699 25.066 13.3427 25.0403 13.521 25.0213C12.7816 24.066 11.9383 22.7573 11.3608 21.2416C8.75717 20.5156 5.56071 18.3545 5.2397 16.4993ZM10.5744 8.81117C10.5345 8.58074 10.4525 8.37101 10.3518 8.17357C9.90068 8.67191 9.22147 9.05447 8.4203 9.19821C7.61914 9.34251 6.85242 9.22058 6.26126 8.90905C6.23282 9.12941 6.22626 9.35537 6.26618 9.5858C6.47618 10.7995 7.61039 11.6099 8.80038 11.3962C9.98982 11.1826 10.7844 10.0248 10.5744 8.81117ZM33.1843 6.76191C28.3182 4.0001 22.7155 2.99168 17.2167 3.88991C15.7232 4.13377 14.5327 5.35863 14.2614 6.93026L12.5262 16.9702C11.6846 21.8389 17.7368 27.9475 21.1837 28.5672C24.6306 29.1875 32.3656 25.5588 33.2072 20.6901L34.9424 10.6501C35.2142 9.07796 34.506 7.51192 33.1843 6.76191ZM18.2416 12.1759C18.4516 10.9622 19.5858 10.1518 20.7758 10.366C21.9657 10.5802 22.7598 11.7374 22.5504 12.9511C22.5104 13.1815 22.4284 13.3913 22.3278 13.5887C21.8766 13.0904 21.1974 12.7078 20.3962 12.5641C19.5951 12.4198 18.8284 12.5417 18.2372 12.8532C18.2082 12.6323 18.2016 12.4063 18.2416 12.1759ZM22.0954 23.2925C19.0504 22.745 16.981 19.9775 17.226 16.978C18.3526 18.4065 20.3 19.5603 22.6668 19.9859C25.0337 20.4116 27.2507 20.0066 28.788 19.0575C28.0125 21.9625 25.1398 23.8401 22.0954 23.2925ZM29.2211 14.8281C28.7699 14.3298 28.0902 13.9472 27.289 13.8035C26.4878 13.6592 25.7211 13.7811 25.1299 14.0926C25.1015 13.8723 25.0949 13.6463 25.1349 13.4159C25.3449 12.2022 26.4791 11.3918 27.6691 11.6054C28.8585 11.8196 29.6531 12.9768 29.4437 14.1905C29.4037 14.4215 29.3217 14.6312 29.2211 14.8281Z" fill="#7D52CF"/>
</svg>
