<svg width="35" height="30" viewBox="0 0 35 30" fill="none" xmlns="http://www.w3.org/2000/svg">
<path d="M35 8.56314L33.2325 12.8134V12.7983C32.3225 12.5119 31.43 12.5572 30.555 12.9189C29.68 13.2806 29.0675 13.8533 28.735 14.6371C28.4025 15.4208 28.455 16.1895 28.8575 16.943C29.2775 17.6966 29.9425 18.2091 30.87 18.4954V18.5105L29.1025 22.7607L2.7475 14.6521L4.48 10.4471C5.39 10.7335 6.2825 10.6883 7.1575 10.3265C8.0325 9.97989 8.6275 9.40716 8.96 8.62343C9.2925 7.8397 9.24 7.07104 8.82 6.31745C8.62862 5.95912 8.35462 5.63806 8.01467 5.37378C7.67472 5.1095 7.27591 4.90752 6.8425 4.78013L8.6275 0.454529L35 8.56314ZM26.3025 17.139L28.7 11.472C28.91 11.0048 28.875 10.4923 28.63 10.0402C28.385 9.58802 27.9475 9.24137 27.405 9.06051L14.245 4.94592C13.125 4.59927 11.8475 5.12678 11.445 6.06123L9.0475 11.7282C8.6275 12.7079 9.2225 13.793 10.3425 14.1397L23.5025 18.2694C23.7475 18.3447 23.9925 18.3899 24.255 18.3899C25.165 18.3899 26.005 17.8926 26.3025 17.139ZM13.9475 5.65429L27.09 9.76888C27.4225 9.87438 27.685 10.0854 27.8425 10.3567C27.9825 10.628 28 10.9294 27.8775 11.2158L25.48 16.8828C25.2525 17.4555 24.465 17.772 23.8 17.561L10.6575 13.4313C10.3304 13.3293 10.0637 13.1196 9.91601 12.8483C9.76834 12.577 9.75179 12.2662 9.87 11.9844L12.2675 6.31745C12.4425 5.88037 12.95 5.57893 13.4925 5.57893C13.65 5.57893 13.79 5.60907 13.9475 5.65429ZM25.8825 23.9514C26.495 24.3584 27.195 24.5694 27.9825 24.5694H28V29.0909H0V24.6297C0.9625 24.6297 1.8025 24.3282 2.4675 23.7404C3.15 23.1677 3.5 22.4442 3.5 21.6153C3.5 20.7863 3.15 20.078 2.4675 19.4902C1.785 18.9024 0.9625 18.6009 0 18.6009V14.0191H1.8375L1.3475 15.2249L6.37 16.7622C5.4775 17.0033 4.8125 17.6966 4.8125 18.5407V24.5694C4.8125 25.6093 5.7925 26.4533 7 26.4533H21C22.2075 26.4533 23.1875 25.6093 23.1875 24.5694V21.9318L24.64 22.384C24.85 23.032 25.27 23.5596 25.8825 23.9514ZM5.6875 24.5694V18.5407C5.6875 17.9227 6.2825 17.4103 7 17.4103H8.4525L22.3125 21.6756V24.5694C22.3125 25.1873 21.7175 25.6997 21 25.6997H7C6.2825 25.6997 5.6875 25.1873 5.6875 24.5694Z" fill="#7D52CF"/>
</svg>
