<svg width="40" height="41" viewBox="0 0 40 41" fill="none" xmlns="http://www.w3.org/2000/svg">
<path d="M20 0.181824C8.95536 0.181824 0 9.13718 0 20.1818C0 31.2265 8.95536 40.1818 20 40.1818C31.0446 40.1818 40 31.2265 40 20.1818C40 9.13718 31.0446 0.181824 20 0.181824ZM29.6116 15.2577C29.625 15.4675 29.625 15.6863 29.625 15.9006C29.625 22.4541 24.6339 30.0033 15.5134 30.0033C12.7009 30.0033 10.0938 29.1863 7.89732 27.78C8.29911 27.8247 8.68304 27.8425 9.09375 27.8425C11.4152 27.8425 13.5491 27.0568 15.25 25.7265C13.0714 25.6818 11.2411 24.2533 10.6161 22.289C11.3795 22.4006 12.067 22.4006 12.8527 22.1997C11.7309 21.9718 10.7227 21.3625 9.99918 20.4755C9.2757 19.5884 8.88164 18.4783 8.88393 17.3336V17.2711C9.54018 17.6416 10.3125 17.8693 11.1205 17.9006C10.4413 17.4479 9.88419 16.8345 9.49871 16.115C9.11323 15.3954 8.91127 14.5919 8.91072 13.7756C8.91072 12.8515 9.15179 12.0077 9.58482 11.2756C10.8299 12.8083 12.3836 14.0619 14.1449 14.9549C15.9062 15.8478 17.8358 16.3602 19.808 16.4586C19.1071 13.0881 21.625 10.3604 24.6518 10.3604C26.0804 10.3604 27.3661 10.9586 28.2723 11.9229C29.3929 11.7131 30.4643 11.2934 31.4196 10.7309C31.0491 11.8783 30.2723 12.847 29.2411 13.4586C30.2411 13.3515 31.2054 13.0747 32.0982 12.6863C31.4241 13.6774 30.5804 14.5568 29.6116 15.2577Z" fill="white"/>
</svg>
