<svg width="55" height="55" viewBox="0 0 55 55" fill="none" xmlns="http://www.w3.org/2000/svg">
<path fill-rule="evenodd" clip-rule="evenodd" d="M0 0V55H55V0H0ZM51.823 6.24888C51.7912 7.38538 51.7514 8.53851 51.5851 9.60844C51.2847 11.7493 50.7075 13.7192 50.399 15.8519C50.398 16.8978 50.8532 17.7128 50.9817 18.7107C51.2852 19.5829 51.1864 20.2574 50.6752 19.388C50.0426 18.5074 49.65 17.1519 48.971 16.3823C48.5864 16.4118 47.4154 17.2638 48.1982 17.82C47.7632 18.7541 47.0908 17.3118 46.5469 17.9161C46.0897 18.184 45.5297 18.2663 45.7369 19.3741C45.0498 19.4711 44.4248 19.6042 43.7766 20.1059C42.0436 21.332 40.2703 22.5352 38.4027 22.8233C37.7262 22.8529 36.8743 23.2991 36.3169 22.6579C35.8027 22.6311 34.7441 22.5258 35.5678 21.454C36.5215 20.0449 37.4082 18.4613 38.4874 17.359C39.1169 16.6632 40.0126 16.2456 39.9637 14.5962C40.1104 13.4939 40.2556 12.2216 40.7571 11.4732C41.4422 11.7559 41.1029 13.7684 41.5631 14.5584C42.1811 15.5433 43.0032 14.6979 43.7211 14.769C44.7121 14.6046 45.7228 14.6582 46.6981 14.3117C47.0822 13.226 47.4028 14.21 47.7057 14.7792C48.3877 14.9141 49.0752 14.636 49.4105 13.4228C50.1162 11.8668 50.8652 10.3469 51.3572 8.5099C51.5845 7.81137 51.6979 7.0232 51.8224 6.24799L51.823 6.24888ZM0.895547 11.0747L3.35843 14.1285L5.82131 18.776L6.03857 23.8218L9.44307 26.8755L9.80549 34.3109C9.80549 34.3109 9.22581 38.6923 9.87808 39.0916C10.5298 39.4898 10.6024 38.6933 10.6024 38.6933L12.7028 45.5981C12.7028 45.5981 13.5718 44.4034 14.9484 45.5981C16.3245 46.7929 16.0352 52.9013 16.0352 52.9013H0.896049L0.823464 21.962L0.895547 11.0747ZM27.5013 18.7568C30.2308 18.7568 32.0585 20.8524 33.3727 24.0837C34.6868 27.3157 35.4464 31.7267 35.8512 36.1805C36.5246 43.5946 36.2257 51.0373 36.1062 53.3296H33.797C33.797 53.3296 34.0234 46.9818 33.6055 42.3804C33.3338 39.3913 32.8297 36.3617 31.8745 34.0119C30.9193 31.6622 29.4711 30.0369 27.5017 30.0369C25.5318 30.0369 24.0842 31.6622 23.1289 34.0119C22.1737 36.3616 21.6696 39.3913 21.3979 42.3804C20.98 46.9818 21.2064 53.3296 21.2064 53.3296H18.8972C18.7777 51.0372 18.4783 43.5936 19.1522 36.1805C19.557 31.7279 20.3166 27.3157 21.6307 24.0837C22.9449 20.8516 24.7713 18.7568 27.5013 18.7568ZM27.5013 31.7064C28.767 31.7064 29.7066 32.4132 30.4425 33.6005C29.6683 34.202 29.0437 35.2508 28.5719 36.5258C27.8234 38.5493 27.403 41.1345 27.152 43.6884C26.7407 47.8704 26.7946 51.9654 26.8284 53.3302H22.1204C22.0388 51.6172 21.8901 47.1211 22.2958 42.6555C22.5534 39.8217 23.0383 37.0275 23.8584 35.0105C24.679 32.9926 25.7941 31.7064 27.5013 31.7064ZM41.2545 34.8275L41.4904 35.2544C41.6371 35.4549 41.2777 34.8506 41.4128 34.8275C41.6789 35.2692 41.7893 35.587 41.9411 35.9372C41.8886 35.5944 41.7581 35.2267 41.5756 34.8423C41.7929 35.2267 42.0827 35.612 42.1523 35.9963C42.1306 35.6563 41.9325 35.3172 41.809 34.9772C41.9723 35.3403 42.2581 35.6979 42.2783 36.0481C42.2732 35.7598 42.1442 35.4484 42.0711 35.1472C42.1886 35.4678 42.3564 35.7875 42.3841 36.1081C42.3771 35.867 42.3262 35.6267 42.2748 35.3856L42.4179 35.8568C42.4759 36.1127 42.5081 36.0453 42.49 35.7727L42.5459 36.1441C43.0414 36.9295 43.1785 38.4402 43.9442 38.468C43.9508 38.5419 43.9221 38.5483 43.8898 38.553C43.7265 38.6047 43.8429 38.5724 43.9347 38.626C43.8903 38.8468 43.6332 38.8154 43.4961 38.9438C43.3494 39.0815 43.2209 39.2497 43.0914 39.4271C42.9079 39.6784 42.6821 39.8401 42.5273 40.121C42.5218 40.4471 42.4703 40.7678 42.3927 41.0607C42.307 41.3988 42.1442 41.6382 42.052 41.9699C41.931 42.1538 42.0258 41.8257 42.0484 41.7555C41.933 41.8775 42.0409 41.6936 41.9829 41.6465C42.0232 41.2289 41.9008 41.5883 41.8156 41.7158C41.6175 41.9597 41.9093 41.3573 41.7677 41.6317C41.7561 41.2455 41.7788 40.8796 41.7984 40.4961C41.7359 40.3317 41.9552 40.0924 41.8922 40.1321C41.6795 40.1062 41.5454 40.352 41.4501 40.6661C41.3624 40.8796 41.3553 40.6975 41.4128 40.5756C41.3306 40.7206 41.1719 41.0431 41.0358 41.1327C40.8205 41.3878 41.1245 40.6458 40.9743 40.9738C40.8367 41.3222 40.5261 41.1457 40.4253 40.8029C40.3245 40.4601 40.3124 40.0572 40.321 39.6987C40.3296 39.3402 40.4052 39.027 40.5125 38.7415C40.5125 38.7415 40.2308 38.9032 40.1889 38.9614C40.1889 38.9614 39.952 39.2395 39.8769 39.0399C39.7726 38.7618 39.9883 38.5576 40.0498 38.2989C40.1118 38.0374 40.137 37.7833 40.1471 37.5126L40.3346 37.8166C40.3976 37.8766 40.4692 38.1335 40.5302 38.0273C40.4747 37.9496 40.3916 37.7879 40.3911 37.5662C40.4319 37.2742 40.3568 36.9933 40.3452 36.7069C40.3522 36.3077 40.3336 35.9086 40.4097 35.5205C40.4858 35.1324 40.693 34.9051 40.8825 34.8709C41.0726 34.8358 41.251 35.4706 41.1457 35.0631C41.0378 34.8044 41.2248 34.8774 41.2606 35.0631C41.4778 35.3819 41.1043 34.8488 41.2565 34.8248L41.2545 34.8275ZM31.1061 34.918C31.1187 34.9485 31.1318 34.9781 31.1444 35.0095C31.965 37.0275 32.4499 39.8207 32.7069 42.6545C33.1127 47.1201 32.964 51.6162 32.8824 53.3292H27.7398C27.7096 52.1096 27.6486 48.0459 28.0478 43.984C28.2862 41.5623 28.693 39.1709 29.3256 37.4617C29.7949 36.1931 30.3575 35.296 31.1061 34.918ZM42.9895 37.8045C42.8786 37.8045 42.7884 37.969 42.7884 38.1722C42.7884 38.2702 42.8095 38.3644 42.8473 38.4328C42.8851 38.5021 42.9366 38.5409 42.9895 38.5409C43.1009 38.5409 43.1906 38.3764 43.1906 38.1722C43.1906 37.969 43.1009 37.8045 42.9895 37.8045ZM42.9895 37.8331C43.0918 37.8331 43.1745 37.9847 43.1745 38.1722C43.1745 38.2619 43.1553 38.3487 43.1205 38.4125C43.0858 38.4753 43.0389 38.5113 42.9895 38.5113C42.9406 38.5113 42.8937 38.4753 42.8589 38.4125C42.8242 38.3487 42.8045 38.2618 42.8045 38.1722C42.8045 37.9847 42.8877 37.8331 42.9895 37.8331ZM42.9935 38.0216C42.9532 38.0216 42.9209 38.0826 42.9209 38.1556C42.9209 38.1907 42.9285 38.224 42.9421 38.2489C42.9557 38.2739 42.9739 38.2877 42.9935 38.2877C43.0127 38.2877 43.0308 38.2739 43.0444 38.2489C43.058 38.224 43.0656 38.1907 43.0656 38.1556C43.0656 38.0826 43.0333 38.0216 42.9935 38.0216Z" fill="white"/>
</svg>
